<?xml version="1.0" encoding="utf-8"?>
<!-- Generator: Adobe Illustrator 18.0.0, SVG Export Plug-In . SVG Version: 6.00 Build 0)  -->
<!DOCTYPE svg PUBLIC "-//W3C//DTD SVG 1.1//EN" "http://www.w3.org/Graphics/SVG/1.1/DTD/svg11.dtd">
<svg version="1.1" xmlns="http://www.w3.org/2000/svg" xmlns:xlink="http://www.w3.org/1999/xlink" x="0px" y="0px"
	 viewBox="0 0 376 240" enable-background="new 0 0 376 240" xml:space="preserve">
<g id="Text">
	<g id="TES">
		<path fill="#4D4D4D" d="M236.7,144.4v40.1H229v-40.1h-21.2v-6.3h50.3v6.3H236.7z"/>
		<path fill="#4D4D4D" d="M270.1,184.5v-46.4h44.7v6.2h-37v13h22.6v6.1h-22.6v14.8h37.3v6.4H270.1z"/>
		<path fill="#4D4D4D" d="M364.3,144.3h-32.8v13h29.2c4.2,0,7,0.8,8.5,2.3c1.5,1.6,2.2,4.4,2.2,8.6v5.2c0,4.3-0.8,7.2-2.2,8.7
			c-1.5,1.5-4.4,2.3-8.5,2.3h-27.1c-4.2,0-7.1-0.8-8.6-2.3c-1.5-1.5-2.3-4.4-2.3-8.7v-1.3l7.2-1.7v7.5h34.6v-14h-29.2
			c-4.1,0-7-0.8-8.5-2.3c-1.5-1.5-2.3-4.4-2.3-8.7v-4c0-4.3,0.8-7.2,2.3-8.7c1.5-1.5,4.4-2.2,8.5-2.2H360c4,0,6.8,0.7,8.4,2.1
			c1.6,1.4,2.5,4.1,2.5,8v1l-6.7,1.9V144.3z"/>
	</g>
	<rect id="period" x="249.9" y="176.6" fill="#4D4D4D" width="7.9" height="7.9"/>
	<g id="DCS">
		<path fill="#4D4D4D" d="M33.3,138.1c8.2,0,14.1,1.2,17.8,3.6c3,1.9,5.4,4.6,7.1,8s2.6,7.2,2.6,11.3c0,9.1-3.2,15.7-9.6,19.9
			c-3.7,2.4-9.6,3.6-17.8,3.6H7.7v-46.4H33.3z M32.2,144.3H15.5V178h16.7c7.2,0,12.4-1.2,15.5-3.6c3.4-2.6,5.1-7.1,5.1-13.4
			c0-6.1-1.7-10.5-5.1-13.1C44.5,145.5,39.3,144.3,32.2,144.3z"/>
		<path fill="#4D4D4D" d="M108.3,144.3H76V178h32.2v-11.6l7.7,1.6v5.5c0,4.3-0.8,7.2-2.2,8.7c-1.5,1.5-4.4,2.2-8.5,2.2h-26
			c-4.2,0-7.1-0.8-8.6-2.3c-1.5-1.5-2.3-4.4-2.3-8.7v-24.5c0-4.3,0.8-7.2,2.3-8.7c1.5-1.5,4.4-2.3,8.6-2.3h26c4.2,0,7,0.7,8.5,2.2
			c1.5,1.5,2.2,4.4,2.2,8.7v4.4l-7.7,1.4V144.3z"/>
		<path fill="#4D4D4D" d="M176,144.3h-32.9v13h29.3c4.2,0,7,0.8,8.5,2.3c1.5,1.6,2.2,4.4,2.2,8.6v5.2c0,4.3-0.8,7.2-2.2,8.7
			c-1.5,1.5-4.4,2.3-8.5,2.3h-27.1c-4.2,0-7.1-0.8-8.6-2.3s-2.3-4.4-2.3-8.7v-1.3l7.2-1.7v7.5h34.6v-14H147c-4.1,0-7-0.8-8.5-2.3
			c-1.5-1.5-2.3-4.4-2.3-8.7v-4c0-4.3,0.8-7.2,2.3-8.7c1.5-1.5,4.4-2.2,8.5-2.2h24.8c4,0,6.8,0.7,8.4,2.1c1.6,1.4,2.5,4.1,2.5,8v1
			L176,151V144.3z"/>
	</g>
	<g id="Letter_I">
		<line fill="#A7383E" x1="196" y1="132" x2="196" y2="192"/>
		<path fill="#A82A33" d="M196.5,131.5c0,0,0.1,0.2,0.2,0.7c0.1,0.4,0.3,1.1,0.5,1.9c0.4,1.6,0.9,4,1.3,6.8c0.4,2.8,0.8,6.1,1.1,9.6
			c0.1,1.8,0.2,3.6,0.3,5.4c0.1,1.8,0.1,3.7,0.1,5.6c0,1.9,0,3.8-0.1,5.6c-0.1,1.8-0.2,3.7-0.3,5.4c-0.3,3.5-0.6,6.8-1.1,9.6
			c-0.4,2.8-0.9,5.2-1.3,6.8c-0.2,0.8-0.4,1.5-0.5,1.9c-0.1,0.4-0.2,0.7-0.2,0.7s-0.1-0.2-0.2-0.7c-0.1-0.4-0.3-1.1-0.5-1.9
			c-0.4-1.6-0.9-4-1.3-6.8c-0.4-2.8-0.8-6.1-1.1-9.6c-0.1-1.8-0.2-3.6-0.3-5.4c-0.1-1.8-0.1-3.7-0.1-5.6c0-1.9,0-3.8,0.1-5.6
			c0.1-1.8,0.2-3.7,0.3-5.4c0.3-3.5,0.6-6.8,1.1-9.6c0.4-2.8,0.9-5.2,1.3-6.8c0.2-0.8,0.4-1.5,0.5-1.9
			C196.4,131.7,196.5,131.5,196.5,131.5z"/>
	</g>
</g>
<g id="Wine_Glass">
	<g>
		<path fill="#A82A33" d="M232.7,16.3c-1.1-0.9-2.5-1.4-3.9-1.8c-1.4-0.4-2.8-0.7-4.2-1c-2.8-0.5-5.7-0.9-8.6-1.1
			c-5.8-0.5-11.6-0.7-17.4-0.7c-5.8,0-11.6,0.3-17.3,0.8c-2.9,0.3-5.7,0.6-8.6,1.1c-2.8,0.5-5.7,1.1-8.3,2c-0.6,0.2-1.3,0.5-1.8,0.9
			c-0.5,0.3-1,0.8-1,0.9c0,0,0,0.1,0,0l0,0.1c0,0,0,0,0,0c0,0,0,0.1,0.1,0.2c0.1,0.2,0.3,0.3,0.5,0.5c0.5,0.4,1.1,0.7,1.7,0.9
			c2.5,1,5.4,1.6,8.2,2.1c5.7,1,11.5,1.5,17.2,1.8c5.8,0.3,11.6,0.4,17.4,0.2c5.8-0.1,11.6-0.6,17.3-1.5c-5.7,1.4-11.5,2-17.3,2.4
			c-5.8,0.4-11.7,0.5-17.5,0.4c-5.8-0.1-11.7-0.6-17.5-1.5c-2.9-0.5-5.8-1.1-8.6-2.2c-0.7-0.3-1.4-0.6-2.1-1.1c-0.3-0.3-0.7-0.6-1-1
			c-0.2-0.2-0.3-0.5-0.4-0.8c0-0.1,0-0.2,0-0.3l0-0.1c0-0.3,0-0.4,0-0.5c0.1-0.6,0.5-1.1,0.8-1.4c0.3-0.3,0.7-0.6,1-0.8
			c0.7-0.4,1.4-0.7,2.1-1c2.9-1.1,5.8-1.6,8.7-2.1c2.9-0.5,5.8-0.8,8.7-1c5.8-0.4,11.7-0.6,17.5-0.5c5.8,0.1,11.7,0.5,17.5,1.3
			c2.9,0.4,5.8,0.9,8.6,1.6c1.4,0.3,2.8,0.7,4.2,1.2C230.3,14.7,231.7,15.2,232.7,16.3z"/>
	</g>
	<g>
		<path fill="none" d="M233.3,17.4"/>
	</g>
	<g>
		<path fill="none" d="M197.1,17.9"/>
	</g>
	<g>
		<path fill="#A82A33" d="M173.9,22.3c-3.6,0.7-7.2,1.4-10.6,2.6c-0.8,0.3-1.7,0.6-2.4,1c-0.4,0.2-0.7,0.4-1,0.7
			c-0.3,0.3-0.5,0.5-0.5,0.7c-0.1,0.3,0.6,0.9,1.3,1.3c0.7,0.4,1.6,0.7,2.4,0.9c3.4,1,7,1.6,10.6,2c3.6,0.4,7.2,0.8,10.8,1
			c7.3,0.5,14.5,0.6,21.8,0.5c3.6-0.1,7.3-0.2,10.9-0.4c3.6-0.2,7.3-0.5,10.9-0.9c-7.1,1.7-14.5,2.5-21.8,2.8
			c-7.3,0.4-14.7,0.4-22-0.1c-3.7-0.2-7.3-0.6-11-1.1c-3.6-0.6-7.3-1.2-10.8-2.4c-0.9-0.3-1.8-0.7-2.6-1.2c-0.4-0.3-0.9-0.5-1.2-1
			c-0.2-0.2-0.4-0.5-0.5-0.8l-0.1-0.2c0-0.1,0-0.2-0.1-0.3l0-0.2l0-0.3c0.2-0.7,0.6-1.2,1-1.5c0.4-0.3,0.8-0.6,1.3-0.8
			c0.9-0.4,1.8-0.7,2.7-1C166.6,23,170.2,22.6,173.9,22.3z"/>
	</g>
	<g>
		<path fill="none" d="M195,20.9"/>
	</g>
	<g>
		<path fill="#A82A33" d="M173.3,32.3c-3.8,0.7-7.6,1.4-11.2,2.6c-0.9,0.3-1.8,0.6-2.6,1.1c-0.4,0.2-0.8,0.5-1.1,0.7
			c-0.3,0.3-0.5,0.6-0.5,0.8c-0.1,0.4,0.7,1,1.5,1.4c0.8,0.4,1.7,0.7,2.6,1c3.6,1,7.4,1.6,11.3,2c3.8,0.5,7.6,0.8,11.5,1
			c7.7,0.5,15.4,0.6,23.1,0.5c3.9-0.1,7.7-0.2,11.6-0.4c3.9-0.2,7.7-0.5,11.5-1c-7.6,1.7-15.3,2.5-23.1,2.9
			c-7.7,0.4-15.5,0.4-23.3-0.1c-3.9-0.3-7.7-0.6-11.6-1.1c-3.9-0.6-7.7-1.2-11.5-2.4c-0.9-0.3-1.9-0.7-2.8-1.2
			c-0.5-0.3-0.9-0.5-1.3-0.9c-0.2-0.2-0.4-0.4-0.6-0.8c-0.1-0.2-0.1-0.3-0.2-0.6c0-0.1,0-0.1,0-0.2c0-0.2,0-0.2,0-0.3
			c0.1-0.8,0.6-1.2,1.1-1.6c0.4-0.3,0.9-0.6,1.4-0.8c0.9-0.4,1.9-0.7,2.8-1c1.9-0.5,3.8-0.8,5.7-1.1
			C169.5,32.6,171.4,32.4,173.3,32.3z"/>
	</g>
	<g>
		<path fill="#A82A33" d="M172.3,43.3c-4,0.7-8,1.4-11.7,2.7c-0.9,0.3-1.9,0.7-2.7,1.1c-0.4,0.2-0.8,0.5-1.2,0.7
			c-0.3,0.3-0.6,0.6-0.6,0.8l0,0l0,0c0-0.1,0,0,0,0l0,0c0,0.1,0,0.1,0,0.1c0,0,0,0.1,0.1,0.1c0.1,0.1,0.2,0.3,0.4,0.4
			c0.3,0.3,0.7,0.5,1.1,0.7c0.8,0.4,1.8,0.7,2.7,1c3.8,1,7.8,1.6,11.8,2.1c4,0.5,8,0.8,12,1c8,0.5,16.1,0.6,24.1,0.5
			c4-0.1,8-0.2,12.1-0.4c4-0.2,8-0.5,12.1-1c-7.9,1.7-16,2.5-24.1,3c-8.1,0.4-16.2,0.4-24.3-0.1c-4-0.3-8.1-0.6-12.1-1.1
			c-4-0.6-8.1-1.2-12-2.5c-1-0.3-2-0.7-2.9-1.2c-0.5-0.3-1-0.5-1.4-1c-0.2-0.2-0.4-0.5-0.6-0.8c-0.1-0.2-0.2-0.3-0.2-0.6
			c0-0.1,0-0.2,0-0.3l0,0l0-0.1l0,0l0-0.1c0.1-0.8,0.7-1.3,1.1-1.6c0.5-0.3,0.9-0.6,1.4-0.8c1-0.4,2-0.7,2.9-1c2-0.5,4-0.9,6-1.1
			C168.2,43.6,170.2,43.4,172.3,43.3z"/>
	</g>
	<g>
		<path fill="#A82A33" d="M171.2,54.3c-4.1,0.7-8.3,1.5-12.3,2.8c-1,0.3-2,0.7-2.9,1.1c-0.4,0.2-1,0.5-1.3,0.8
			c-0.4,0.3-0.7,0.6-0.7,0.8v0c0-0.1,0.1,0,0.1,0l0.1,0.1c0,0,0,0,0,0c0,0,0.1,0.1,0.1,0.2c0.1,0.1,0.2,0.3,0.4,0.4
			c0.3,0.3,0.8,0.5,1.2,0.7c0.9,0.4,1.9,0.7,2.9,1c4,1.1,8.1,1.7,12.3,2.1c4.2,0.5,8.3,0.8,12.5,1c8.4,0.5,16.8,0.6,25.2,0.5
			c4.2-0.1,8.4-0.2,12.6-0.4c4.2-0.2,8.4-0.6,12.6-1c-8.3,1.8-16.7,2.6-25.1,3c-8.4,0.4-16.9,0.4-25.3-0.1
			c-4.2-0.3-8.4-0.6-12.6-1.2c-4.2-0.6-8.4-1.2-12.5-2.5c-1-0.3-2-0.7-3-1.2c-0.5-0.3-1-0.6-1.5-1c-0.2-0.2-0.5-0.5-0.6-0.8
			c-0.1-0.2-0.2-0.3-0.2-0.6l0-0.2l0-0.1l0-0.2l0-0.2c0.1-0.9,0.7-1.3,1.1-1.7c0.5-0.4,1-0.6,1.5-0.8c1-0.4,2-0.8,3.1-1
			c2.1-0.5,4.2-0.9,6.3-1.2C167,54.6,169.1,54.4,171.2,54.3z"/>
	</g>
	<g>
		<path fill="#A82A33" d="M170.7,65.3c-4.3,0.7-8.6,1.4-12.7,2.6c-1,0.3-2,0.6-3,1.1c-0.5,0.2-0.9,0.5-1.3,0.7
			c-0.4,0.3-0.6,0.7-0.6,0.7c0,0.2,0.3,0.5,0.7,0.7c0.4,0.3,0.9,0.5,1.3,0.7c1,0.4,2,0.7,3,0.9c4.1,1,8.4,1.5,12.7,1.9
			c4.3,0.4,8.6,0.7,12.9,0.9c8.6,0.4,17.3,0.6,25.9,0.5c4.3-0.1,8.6-0.2,13-0.4c4.3-0.2,8.6-0.5,12.9-0.9
			c-8.5,1.7-17.2,2.4-25.9,2.8c-8.7,0.4-17.4,0.4-26,0c-4.3-0.2-8.7-0.6-13-1.1c-4.3-0.5-8.6-1.1-12.9-2.3c-1.1-0.3-2.1-0.6-3.2-1.1
			c-0.5-0.2-1-0.5-1.6-0.8c-0.3-0.2-0.5-0.4-0.7-0.7c-0.1-0.1-0.2-0.3-0.3-0.5c-0.1-0.1-0.2-0.6-0.2-0.6c0-0.5,0.2-0.9,0.4-1.2
			c0.2-0.3,0.5-0.5,0.7-0.7c0.5-0.3,1-0.6,1.6-0.8c1.1-0.4,2.1-0.7,3.2-1c2.1-0.5,4.3-0.8,6.4-1.1C166.3,65.6,168.5,65.4,170.7,65.3
			z"/>
	</g>
	<g>
		<path fill="#A82A33" d="M170.9,75.2c-4.5,0.8-9.1,1.6-13.5,3c-1.1,0.4-2.2,0.7-3.1,1.2c-0.5,0.2-1.1,0.5-1.5,0.8
			c-0.4,0.3-0.8,0.7-0.8,1v0c0-0.1,0.1,0,0.1,0.1c0,0.1,0.1,0.1,0.1,0.1c0,0,0.1,0.1,0.1,0.2c0.1,0.2,0.3,0.3,0.5,0.5
			c0.4,0.3,0.8,0.6,1.3,0.8c1,0.5,2.1,0.8,3.1,1.1c4.4,1.2,8.9,1.8,13.5,2.4c4.6,0.5,9.1,0.9,13.7,1.1c9.2,0.5,18.4,0.7,27.6,0.5
			c4.6-0.1,9.2-0.2,13.8-0.5c4.6-0.2,9.2-0.6,13.8-1.2c-9.1,1.9-18.3,2.8-27.6,3.2c-9.2,0.4-18.5,0.4-27.8-0.1
			c-4.6-0.3-9.2-0.7-13.9-1.3c-4.6-0.6-9.2-1.3-13.7-2.7c-1.1-0.4-2.2-0.8-3.3-1.3c-0.5-0.3-1.1-0.6-1.6-1c-0.3-0.2-0.5-0.5-0.7-0.8
			c-0.1-0.2-0.2-0.3-0.2-0.6c0-0.1,0-0.3,0-0.3l0-0.2l0-0.2c0.1-0.9,0.7-1.4,1.2-1.8c0.5-0.4,1.1-0.7,1.6-0.9
			c1.1-0.5,2.2-0.8,3.4-1.1c2.3-0.6,4.6-1,6.8-1.3C166.3,75.6,168.6,75.4,170.9,75.2z"/>
	</g>
	<g>
		<path fill="#A82A33" d="M172.1,88.3c-4.2,0.7-8.5,1.4-12.5,2.6c-1,0.3-2,0.6-2.9,1.1c-0.5,0.2-0.9,0.5-1.3,0.7
			c-0.4,0.2-0.6,0.7-0.6,0.7c0,0.2,0.3,0.5,0.6,0.8c0.4,0.3,0.8,0.5,1.3,0.7c0.9,0.4,1.9,0.7,3,0.9c4.1,1,8.3,1.5,12.5,1.9
			c4.2,0.4,8.5,0.7,12.7,0.9c8.5,0.4,17,0.6,25.6,0.5c4.3-0.1,8.5-0.2,12.8-0.4c4.3-0.2,8.5-0.5,12.8-0.9c-8.4,1.7-17,2.4-25.5,2.8
			c-8.6,0.4-17.1,0.4-25.7,0c-4.3-0.2-8.6-0.6-12.8-1.1c-4.3-0.5-8.5-1.1-12.7-2.3c-1-0.3-2.1-0.6-3.1-1.1c-0.5-0.2-1-0.5-1.5-0.9
			c-0.2-0.2-0.5-0.4-0.7-0.7c-0.1-0.1-0.2-0.3-0.3-0.5c0-0.1-0.1-0.2-0.1-0.3c0-0.2,0-0.2,0-0.2c0-0.6,0.2-0.9,0.4-1.2
			c0.2-0.3,0.5-0.5,0.7-0.7c0.5-0.3,1-0.6,1.5-0.8c1-0.4,2.1-0.7,3.1-1c2.1-0.5,4.2-0.8,6.4-1.1C167.8,88.6,169.9,88.4,172.1,88.3z"
			/>
	</g>
	<g>
		<path fill="#A82A33" d="M174.2,99.3c-3.7,0.7-7.5,1.4-11,2.6c-0.9,0.3-1.8,0.6-2.6,1.1c-0.4,0.2-0.8,0.4-1.1,0.7
			c-0.3,0.3-0.5,0.6-0.5,0.8c-0.1,0.3,0.7,1,1.4,1.3c0.8,0.4,1.7,0.7,2.5,0.9c3.6,1,7.3,1.5,11.1,2c3.7,0.4,7.5,0.8,11.3,1
			c7.6,0.5,15.1,0.6,22.7,0.5c3.8-0.1,7.6-0.2,11.4-0.4c3.8-0.2,7.6-0.5,11.3-0.9c-7.4,1.7-15.1,2.5-22.7,2.8
			c-7.6,0.4-15.3,0.4-22.9-0.1c-3.8-0.2-7.6-0.6-11.4-1.1c-3.8-0.6-7.6-1.1-11.3-2.4c-0.9-0.3-1.8-0.7-2.7-1.1
			c-0.4-0.3-0.9-0.5-1.3-0.9c-0.2-0.2-0.4-0.4-0.6-0.7c-0.1-0.2-0.1-0.3-0.2-0.5c0-0.1,0-0.2,0-0.2l0,0c0-0.1,0-0.1,0-0.1l0-0.1
			c0.1-0.8,0.6-1.2,1-1.5c0.4-0.3,0.9-0.6,1.3-0.8c0.9-0.4,1.8-0.7,2.8-1C166.6,100,170.4,99.6,174.2,99.3z"/>
	</g>
	<g>
		<path fill="#A82A33" d="M178.5,110.3c-2.9,0.7-5.9,1.4-8.6,2.6c-0.7,0.3-1.3,0.6-1.9,1c-0.6,0.4-1.1,0.9-1.2,1.3
			c0,0.1,0,0.1,0,0.2c0,0,0,0.1,0,0l0,0.1c0,0.1,0,0.2,0.1,0.3c0.1,0.2,0.3,0.4,0.6,0.6c0.5,0.4,1.1,0.7,1.8,1
			c2.7,1.1,5.6,1.6,8.5,2.1c2.9,0.5,5.9,0.8,8.9,1c5.9,0.5,11.9,0.6,17.9,0.5c3-0.1,6-0.2,9-0.4c3-0.2,6-0.5,9-0.9
			c-5.8,1.7-11.8,2.5-17.9,2.9c-6,0.4-12.1,0.3-18.1-0.1c-3-0.3-6-0.6-9-1.1c-3-0.6-6-1.2-8.9-2.6c-0.7-0.3-1.4-0.7-2.1-1.3
			c-0.3-0.3-0.6-0.6-0.9-1.1c-0.1-0.2-0.2-0.5-0.2-0.8l0-0.1c0-0.1,0-0.2,0-0.2c0-0.1,0.1-0.3,0.1-0.4c0.4-1,1.2-1.5,1.8-1.9
			c0.7-0.4,1.4-0.7,2.2-1C172.5,111,175.5,110.6,178.5,110.3z"/>
	</g>
	<g>
		<path fill="none" d="M219.8,218.1"/>
	</g>
	<g>
		<path fill="none" d="M198.2,215.9"/>
	</g>
	<g>
		<path fill="#A82A33" d="M226.6,223.6c-0.9,1.2-2.2,1.8-3.6,2.4c-1.3,0.6-2.7,1-4.1,1.4c-2.8,0.8-5.6,1.3-8.5,1.7
			c-5.7,0.8-11.5,0.9-17.3,0.7c-5.8-0.3-11.6-0.8-17.2-2.5c-1.4-0.4-2.8-0.9-4.1-1.6c-0.7-0.4-1.3-0.8-1.9-1.3
			c-0.3-0.3-0.6-0.6-0.8-1c-0.2-0.4-0.3-0.9-0.3-1.3c0.1-1,0.8-1.6,1.4-2c0.7-0.4,1.3-0.7,2-0.9c1.4-0.5,2.8-0.7,4.2-1
			c-1.4,0.4-2.7,0.9-4,1.5c-0.6,0.3-1.3,0.6-1.8,1.1c-0.5,0.4-0.8,1-0.9,1.4c0,0.5,0.3,1,0.8,1.4c0.5,0.4,1.1,0.7,1.7,1
			c1.2,0.6,2.6,0.9,4,1.3c2.7,0.6,5.5,1.1,8.4,1.4c2.8,0.3,5.7,0.5,8.5,0.6c5.7,0.2,11.4,0.2,17.1-0.3c2.8-0.2,5.7-0.5,8.5-1.1
			c1.4-0.2,2.8-0.6,4.1-1c0.7-0.2,1.3-0.5,2-0.8C225.4,224.5,226.1,224.2,226.6,223.6z"/>
	</g>
	<g>
		<path fill="none" d="M197.2,213.6"/>
	</g>
	<g>
		<path fill="#A82A33" d="M205.9,214.1c-0.3,0.6-1,0.9-1.5,1.2c-0.6,0.3-1.2,0.5-1.8,0.7c-1.3,0.4-2.5,0.6-3.8,0.8
			c-2.6,0.3-5.2,0.3-7.8-0.1c-0.7-0.1-1.3-0.2-2-0.4c-0.7-0.2-1.3-0.4-2-0.9c-0.2-0.1-0.4-0.3-0.5-0.5c-0.1-0.1-0.2-0.2-0.3-0.4
			c0-0.1-0.1-0.2-0.1-0.2l0,0l0-0.1l0,0l0-0.1c0,0,0-0.2-0.1-0.3l0-0.1l0-0.1l0,0l0-0.1c0,0,0.1-0.5,0.2-0.6
			c0.2-0.3,0.3-0.5,0.5-0.7c0.7-0.6,1.4-0.8,2.1-1c1.3-0.4,2.7-0.5,4-0.5c1.3,0,2.6,0.1,3.9,0.4c-2.5,0.6-5.1,1-7.3,1.8
			c-0.5,0.2-1.1,0.5-1.3,0.7c-0.1,0.1-0.1,0.1-0.1,0.1c0,0,0,0,0-0.1c0,0,0.1-0.1,0.1,0l0.1,0.1v0v0v-0.1v0c0,0-0.2-0.2-0.1-0.1
			c0,0,0,0.1,0.1,0.2c0.4,0.2,0.9,0.5,1.4,0.6c0.6,0.2,1.1,0.3,1.7,0.4c2.4,0.5,4.9,0.6,7.4,0.6c1.3,0,2.5-0.1,3.8-0.2
			c0.6-0.1,1.2-0.2,1.8-0.3C204.8,214.7,205.4,214.6,205.9,214.1z"/>
	</g>
	<line fill="none" stroke="#A82A33" stroke-width="3" stroke-miterlimit="10" x1="196.5" y1="122" x2="196.5" y2="212"/>
	<path fill="none" stroke="#A82A33" stroke-miterlimit="10" d="M196.5,208"/>
	<g>
		<path fill="#A82A33" d="M217.3,219c-0.5,0.8-1.4,1.4-2.3,1.9c-0.9,0.5-1.8,0.8-2.8,1.1c-1.9,0.6-3.8,1-5.8,1.3
			c-3.9,0.6-7.9,0.8-11.8,0.6c-3.9-0.2-7.9-0.7-11.7-2c-1-0.3-1.9-0.7-2.8-1.3c-0.4-0.3-0.9-0.6-1.3-1.1c-0.2-0.2-0.4-0.5-0.5-0.8
			c-0.1-0.3-0.1-0.7-0.1-1c0.1-0.7,0.6-1.1,1-1.4c0.4-0.3,0.9-0.5,1.4-0.7c1-0.3,1.9-0.5,2.9-0.7c-0.9,0.4-1.8,0.7-2.7,1.2
			c-0.8,0.4-1.6,1.1-1.6,1.8c-0.1,0.6,0.6,1.2,1.4,1.6c0.8,0.4,1.7,0.7,2.6,1c1.8,0.5,3.7,0.8,5.6,1c1.9,0.2,3.8,0.4,5.7,0.5
			c3.8,0.2,7.7,0.1,11.5-0.1c1.9-0.2,3.8-0.4,5.7-0.7c0.9-0.2,1.9-0.4,2.8-0.7C215.7,220,216.6,219.7,217.3,219z"/>
	</g>
</g>
</svg>
